<?xml version="1.0" standalone="no"?><!DOCTYPE svg PUBLIC "-//W3C//DTD SVG 1.1//EN" "http://www.w3.org/Graphics/SVG/1.1/DTD/svg11.dtd"><svg t="1749623107530" class="icon" viewBox="0 0 1024 1024" version="1.1" xmlns="http://www.w3.org/2000/svg" p-id="7721" xmlns:xlink="http://www.w3.org/1999/xlink" width="200" height="200"><path d="M84.8896 362.6496c16.4352 0 31.232-9.3184 37.8368-24.1152C189.3376 189.5936 338.5344 85.3504 512 85.3504s322.6624 104.2432 389.2736 253.2352c6.6048 14.7968 21.4528 24.1152 37.632 24.1152h1.2288c31.0784 0 51.712-32.1536 38.9632-60.5184C898.9696 124.0576 719.9744 0 512 0 304.0256 0 125.0816 124.0064 44.9536 302.1312c-12.7488 28.3648 7.8848 60.5696 38.9632 60.5696h0.9728z" fill="#0090F4" p-id="7722"></path><path d="M9.216 484.9664l237.568-137.1648c4.096-2.3552 4.096-8.2944 0-10.6496L9.216 200.0384C5.12 197.632 0 200.6016 0 205.3632v274.3296c0 4.7104 5.12 7.6288 9.216 5.2736zM939.1104 661.3504c-16.4352 0-31.232 9.3184-37.8368 24.1152-66.6112 148.992-215.808 253.2352-389.2736 253.2352s-322.6624-104.2432-389.2736-253.2352c-6.6048-14.7968-21.4528-24.1152-37.632-24.1152h-1.2288c-31.0784 0-51.712 32.1536-38.9632 60.5184C125.0304 899.9424 304.0256 1024 512 1024c207.9744 0 386.9184-124.0064 467.0464-302.1312 12.7488-28.3648-7.8848-60.5696-38.9632-60.5696h-0.9728z" fill="#0090F4" p-id="7723"></path><path d="M1014.784 539.0336l-237.568 137.1648c-4.096 2.3552-4.096 8.2944 0 10.6496l237.568 137.1648c4.096 2.3552 9.216-0.6144 9.216-5.3248v-274.3296c0-4.7616-5.12-7.68-9.216-5.3248zM661.3504 458.6496H362.6496c-23.4496 0-42.6496-19.2-42.6496-42.6496s19.2-42.6496 42.6496-42.6496h298.6496c23.4496 0 42.6496 19.2 42.6496 42.6496 0.0512 23.4496-19.1488 42.6496-42.5984 42.6496zM661.3504 650.6496H362.6496c-23.4496 0-42.6496-19.2-42.6496-42.6496s19.2-42.6496 42.6496-42.6496h298.6496c23.4496 0 42.6496 19.2 42.6496 42.6496 0.0512 23.4496-19.1488 42.6496-42.5984 42.6496z" fill="#0090F4" p-id="7724"></path></svg>